<?xml version="1.0" standalone="no"?>
<!DOCTYPE svg PUBLIC "-//W3C//DTD SVG 20010904//EN"
 "http://www.w3.org/TR/2001/REC-SVG-20010904/DTD/svg10.dtd">
<svg version="1.0" xmlns="http://www.w3.org/2000/svg"
 width="2229.000000pt" height="2229.000000pt" viewBox="0 0 2229.000000 2229.000000"
 preserveAspectRatio="xMidYMid meet">
<metadata>
Created by potrace 1.14, written by Peter Selinger 2001-2017
</metadata>
<g transform="translate(0.000000,2229.000000) scale(0.100000,-0.100000)"
fill="#000000" stroke="none">
<path d="M10808 21726 c-1 -2 -82 -6 -178 -10 -96 -4 -186 -8 -200 -10 -14 -3
-70 -7 -125 -11 -55 -4 -113 -8 -130 -11 -41 -5 -120 -14 -180 -20 -27 -2 -67
-7 -87 -10 -21 -2 -50 -6 -65 -8 -69 -9 -125 -18 -213 -32 -133 -21 -135 -22
-220 -39 -14 -2 -38 -7 -55 -10 -44 -7 -74 -14 -93 -19 -9 -3 -28 -7 -42 -10
-271 -49 -777 -206 -1100 -341 -115 -48 -464 -215 -510 -244 -64 -40 -172
-101 -180 -101 -6 0 -10 -4 -10 -10 0 -5 -5 -10 -10 -10 -8 0 -212 -130 -255
-162 -5 -5 -64 -48 -130 -97 -252 -187 -516 -435 -735 -691 -12 -14 -47 -59
-78 -100 -32 -41 -60 -77 -63 -80 -11 -9 -154 -221 -199 -295 -164 -268 -315
-601 -408 -900 -57 -182 -116 -420 -136 -545 -3 -19 -8 -45 -10 -57 -5 -23
-32 -211 -40 -278 -7 -57 -16 -163 -25 -290 -8 -107 -6 -714 2 -785 2 -19 8
-75 12 -125 4 -49 9 -99 11 -109 2 -11 6 -42 9 -70 3 -28 8 -58 10 -66 2 -8 7
-40 10 -70 3 -30 8 -62 10 -70 2 -8 7 -31 10 -50 13 -78 67 -310 91 -390 13
-47 26 -92 28 -100 14 -55 98 -282 132 -358 13 -29 24 -55 24 -58 0 -10 131
-267 173 -339 99 -173 246 -376 387 -535 161 -183 310 -320 575 -526 57 -45
376 -250 480 -309 110 -63 487 -255 501 -255 3 0 29 -11 57 -25 453 -215 1292
-477 2017 -629 41 -9 116 -25 165 -35 50 -11 104 -21 120 -24 17 -3 77 -15
135 -26 58 -12 116 -24 130 -26 14 -2 50 -9 80 -15 30 -6 66 -13 80 -16 14 -2
81 -16 150 -29 69 -13 136 -26 150 -29 14 -2 45 -9 70 -14 25 -6 65 -14 90
-17 24 -4 47 -8 50 -10 3 -2 21 -6 40 -9 19 -3 127 -24 240 -46 113 -23 216
-44 230 -46 21 -5 295 -68 340 -80 8 -2 35 -8 60 -14 125 -30 499 -143 590
-177 8 -3 20 -7 25 -8 6 -2 78 -28 160 -60 532 -205 935 -447 1222 -733 100
-100 137 -141 195 -217 4 -5 18 -23 32 -40 42 -53 142 -218 190 -313 94 -186
175 -423 212 -617 2 -11 6 -31 9 -45 36 -181 50 -358 50 -625 0 -224 -11 -395
-30 -495 -2 -14 -7 -41 -10 -60 -6 -37 -12 -72 -20 -105 -3 -11 -11 -49 -19
-85 -34 -151 -113 -371 -185 -511 -59 -116 -112 -212 -121 -219 -4 -3 -13 -16
-20 -30 -44 -83 -197 -269 -332 -401 -317 -312 -737 -560 -1233 -727 -126 -43
-374 -113 -446 -127 -12 -2 -28 -6 -37 -9 -9 -3 -33 -8 -52 -11 -19 -3 -51
-10 -70 -15 -19 -5 -57 -12 -85 -16 -27 -3 -53 -8 -56 -10 -3 -1 -28 -6 -55
-10 -27 -3 -58 -8 -69 -10 -11 -2 -40 -7 -65 -10 -25 -3 -53 -8 -63 -10 -10
-2 -48 -6 -85 -10 -36 -3 -74 -7 -83 -9 -37 -7 -186 -19 -404 -32 -251 -15
-1008 -7 -1127 12 -13 2 -63 6 -112 10 -50 4 -98 8 -107 10 -10 2 -50 7 -90
10 -40 4 -81 8 -90 10 -10 2 -44 6 -76 10 -32 3 -65 8 -73 10 -8 2 -37 6 -65
10 -76 9 -276 43 -415 71 -149 30 -157 32 -195 40 -57 11 -320 74 -375 89
-363 99 -650 187 -930 288 -139 50 -459 171 -505 192 -16 8 -88 38 -160 68
-117 49 -259 111 -385 169 -105 48 -653 321 -740 368 -52 29 -129 70 -170 92
-41 22 -90 49 -108 60 l-32 20 2 -1163 3 -1162 90 -32 c50 -18 97 -35 105 -38
28 -11 305 -105 435 -148 72 -23 139 -46 150 -50 185 -72 1351 -395 1560 -432
17 -3 93 -20 170 -37 77 -17 187 -40 245 -51 58 -12 114 -23 125 -25 52 -11
345 -64 383 -69 24 -3 53 -7 65 -10 36 -8 80 -15 127 -20 25 -3 56 -8 70 -10
14 -3 41 -7 60 -10 19 -2 69 -9 110 -15 41 -5 95 -12 120 -15 25 -3 56 -8 70
-10 14 -2 54 -6 90 -9 36 -3 74 -8 85 -10 17 -3 77 -9 230 -21 17 -2 71 -6
120 -10 50 -4 108 -9 130 -11 318 -26 1224 -26 1595 1 118 9 217 16 270 21 30
2 84 7 120 9 36 3 81 7 100 10 19 2 58 6 85 10 28 3 68 7 90 10 22 3 64 7 93
11 29 3 63 7 75 10 12 2 42 7 67 10 25 3 56 7 70 9 14 2 43 7 65 10 327 49
796 152 1070 236 615 187 1091 403 1530 694 256 169 471 346 676 553 109 110
156 162 277 306 47 56 161 214 217 301 31 50 65 101 73 115 9 14 24 39 33 55
9 17 33 59 53 95 55 98 142 280 191 401 73 175 179 500 200 610 2 11 7 29 10
39 3 10 8 27 10 37 2 10 11 50 19 88 18 79 62 334 71 410 4 28 8 61 10 73 2
13 7 63 11 110 3 48 7 89 9 92 25 41 25 1008 1 1137 -2 11 -7 57 -11 104 -4
46 -8 86 -10 89 -2 3 -6 34 -10 70 -4 36 -8 67 -10 70 -2 3 -6 30 -10 60 -14
110 -74 381 -123 551 -117 408 -283 777 -498 1104 -71 109 -144 215 -154 225
-3 3 -30 37 -60 75 -173 221 -402 451 -643 644 -470 376 -1032 681 -1727 935
-223 81 -632 209 -770 241 -8 1 -76 19 -150 38 -74 20 -148 38 -165 41 -16 3
-66 14 -110 25 -44 11 -93 23 -110 26 -16 3 -41 8 -55 11 -14 3 -32 7 -40 9
-8 2 -31 7 -50 10 -19 3 -42 8 -50 10 -8 2 -30 7 -49 10 -19 3 -98 19 -175 35
-418 86 -534 110 -565 115 -19 3 -37 7 -40 9 -3 2 -22 7 -41 10 -19 3 -44 8
-55 10 -11 2 -121 25 -245 51 -124 25 -234 48 -245 51 -16 3 -168 32 -260 50
-63 12 -275 56 -305 64 -19 5 -46 11 -60 14 -14 2 -92 21 -175 41 -82 20 -157
38 -165 40 -8 2 -49 13 -90 25 -41 11 -82 23 -91 25 -35 8 -231 69 -371 116
-420 140 -770 311 -1012 494 -108 81 -213 185 -319 314 -24 30 -137 198 -137
205 0 3 -13 27 -28 53 -72 123 -170 405 -197 563 -3 19 -8 42 -10 50 -2 8 -7
40 -10 70 -4 30 -8 57 -10 60 -18 29 -27 566 -12 705 13 121 18 160 22 175 2
8 7 37 11 65 10 81 70 304 109 410 41 112 152 348 166 353 5 2 9 9 9 15 0 15
109 174 179 262 150 187 374 387 597 532 120 78 354 203 474 253 41 17 90 38
107 46 36 16 379 131 415 138 13 3 50 12 83 21 130 33 405 89 492 100 13 2 42
6 65 10 24 4 54 8 68 10 14 3 68 9 120 15 218 24 214 23 420 37 160 10 790 10
940 0 174 -12 329 -25 385 -33 17 -2 55 -6 85 -9 30 -3 64 -8 75 -10 11 -2 47
-7 80 -10 33 -3 67 -8 75 -10 8 -2 35 -7 60 -10 53 -7 259 -42 292 -50 13 -2
34 -7 48 -9 66 -11 426 -91 540 -121 8 -2 42 -10 75 -19 89 -22 235 -63 365
-103 63 -19 124 -38 135 -41 28 -7 427 -141 445 -149 8 -3 20 -7 25 -9 6 -1
48 -17 95 -34 47 -17 101 -37 120 -44 177 -64 718 -290 910 -379 41 -19 100
-46 130 -60 30 -14 94 -43 143 -66 l87 -40 0 1098 0 1099 -27 10 c-31 12 -279
93 -297 97 -6 1 -18 5 -26 8 -14 5 -163 51 -315 96 -76 22 -257 73 -345 97
-80 22 -591 152 -623 158 -15 4 -39 8 -53 11 -14 3 -56 13 -93 21 -36 9 -77
18 -91 20 -14 2 -43 9 -65 14 -22 6 -49 12 -60 14 -11 1 -31 6 -45 9 -14 3
-74 15 -135 27 -60 11 -121 23 -135 25 -14 3 -119 21 -235 41 -115 19 -221 37
-235 39 -23 4 -107 16 -205 30 -22 3 -54 8 -72 10 -17 3 -55 8 -85 11 -29 2
-64 7 -78 10 -14 2 -50 7 -80 9 -30 3 -71 7 -90 10 -34 5 -70 9 -180 20 -30 3
-75 7 -100 10 -25 2 -81 7 -125 10 -44 3 -105 7 -135 10 -49 3 -104 7 -310 21
-71 5 -997 14 -1002 10z"/>
</g>
</svg>
